<mxfile host="app.diagrams.net" agent="Mozilla/5.0 (Windows NT 10.0; Win64; x64) AppleWebKit/537.36 (KHTML, like Gecko) Chrome/129.0.0.0 Safari/537.36" version="24.8.0">
  <diagram name="Страница — 1" id="afEnYHlyAQADhntxOvSu">
    <mxGraphModel dx="875" dy="471" grid="1" gridSize="10" guides="1" tooltips="1" connect="1" arrows="1" fold="1" page="1" pageScale="1" pageWidth="827" pageHeight="1169" math="0" shadow="0">
      <root>
        <mxCell id="0" />
        <mxCell id="1" parent="0" />
        <mxCell id="8Xhhbdzge6b7BYzGuqMo-1" value="" style="ellipse;html=1;shape=startState;fillColor=#000000;strokeColor=#ff0000;" vertex="1" parent="1">
          <mxGeometry x="20" y="250" width="30" height="30" as="geometry" />
        </mxCell>
        <mxCell id="8Xhhbdzge6b7BYzGuqMo-2" value="" style="edgeStyle=orthogonalEdgeStyle;html=1;verticalAlign=bottom;endArrow=open;endSize=8;strokeColor=#ff0000;rounded=0;" edge="1" source="8Xhhbdzge6b7BYzGuqMo-1" parent="1">
          <mxGeometry relative="1" as="geometry">
            <mxPoint x="120" y="265" as="targetPoint" />
          </mxGeometry>
        </mxCell>
        <mxCell id="8Xhhbdzge6b7BYzGuqMo-3" value="Red is ON" style="rounded=1;whiteSpace=wrap;html=1;arcSize=40;fontColor=#000000;fillColor=#ffffc0;strokeColor=#ff0000;" vertex="1" parent="1">
          <mxGeometry x="120" y="245" width="120" height="40" as="geometry" />
        </mxCell>
        <mxCell id="8Xhhbdzge6b7BYzGuqMo-7" value="Yellow is ON" style="rounded=1;whiteSpace=wrap;html=1;arcSize=40;fontColor=#000000;fillColor=#ffffc0;strokeColor=#ff0000;" vertex="1" parent="1">
          <mxGeometry x="340" y="245" width="120" height="40" as="geometry" />
        </mxCell>
        <mxCell id="8Xhhbdzge6b7BYzGuqMo-10" value="[5 sec delay]" style="html=1;verticalAlign=bottom;endArrow=block;curved=0;rounded=0;" edge="1" parent="1">
          <mxGeometry width="80" relative="1" as="geometry">
            <mxPoint x="460" y="264.65999999999997" as="sourcePoint" />
            <mxPoint x="570" y="265" as="targetPoint" />
          </mxGeometry>
        </mxCell>
        <mxCell id="8Xhhbdzge6b7BYzGuqMo-11" value="[20 sec delay]" style="html=1;verticalAlign=bottom;endArrow=block;curved=0;rounded=0;entryX=0;entryY=0.5;entryDx=0;entryDy=0;" edge="1" parent="1" target="8Xhhbdzge6b7BYzGuqMo-7">
          <mxGeometry width="80" relative="1" as="geometry">
            <mxPoint x="240" y="264.66" as="sourcePoint" />
            <mxPoint x="320" y="264.66" as="targetPoint" />
          </mxGeometry>
        </mxCell>
        <mxCell id="8Xhhbdzge6b7BYzGuqMo-12" value="Green is ON" style="rounded=1;whiteSpace=wrap;html=1;arcSize=40;fontColor=#000000;fillColor=#ffffc0;strokeColor=#ff0000;" vertex="1" parent="1">
          <mxGeometry x="570" y="245" width="120" height="40" as="geometry" />
        </mxCell>
        <mxCell id="8Xhhbdzge6b7BYzGuqMo-14" value="[20 sec delay]" style="html=1;verticalAlign=bottom;endArrow=block;curved=0;rounded=0;exitX=0.5;exitY=1;exitDx=0;exitDy=0;entryX=0.58;entryY=1.015;entryDx=0;entryDy=0;entryPerimeter=0;" edge="1" parent="1" source="8Xhhbdzge6b7BYzGuqMo-12" target="8Xhhbdzge6b7BYzGuqMo-3">
          <mxGeometry x="-0.0008" width="80" relative="1" as="geometry">
            <mxPoint x="600" y="330" as="sourcePoint" />
            <mxPoint x="160" y="390" as="targetPoint" />
            <Array as="points">
              <mxPoint x="630" y="340" />
              <mxPoint x="400" y="340" />
              <mxPoint x="190" y="340" />
            </Array>
            <mxPoint as="offset" />
          </mxGeometry>
        </mxCell>
      </root>
    </mxGraphModel>
  </diagram>
</mxfile>
